<?xml version="1.0" encoding="UTF-8"?>
<svg id="Soc-Med" xmlns="http://www.w3.org/2000/svg" viewBox="0 0 200 200">
  <defs>
    <style>
      .cls-1 {
        fill: #fff;
      }

      .cls-2 {
        fill: #ffc114;
      }
    </style>
  </defs>
  <g id="amazon">
    <path class="cls-2" d="m199.94,149.99c0,27.62-22.39,50.01-50.01,50.01H49.93C22.32,200-.06,177.61-.06,149.99V50C-.06,22.38,22.32,0,49.93,0h100c27.62,0,50.01,22.38,50.01,50v99.99Z"/>
    <g>
      <path class="cls-1" d="m38.75,135.94c15.84,13.76,33.2,26.55,56.55,26.56.46,0,.91,0,1.38-.02,14.85-.34,31.65-5.36,44.69-13.55l.07-.05c1.71-1.03,3.42-2.18,5.02-3.48,1.01-.74,1.69-1.9,1.69-3.1-.04-2.15-1.86-3.6-3.82-3.6-.62,0-1.25.14-1.86.42-.67.27-1.36.57-1.99.85l-.96.4-1.23.5h0c-13.41,5.45-27.5,8.64-40.54,8.92-.48.02-.96.02-1.43.02-20.5,0-37.23-9.51-54.1-18.88-.59-.31-1.2-.47-1.78-.47-.76,0-1.54.28-2.11.81-.57.54-.9,1.31-.89,2.1,0,1.03.54,1.96,1.31,2.56Z"/>
      <path class="cls-1" d="m162.41,131.11c-.05-1.3-.33-2.3-.87-3.12l-.05-.08-.06-.08c-.55-.6-1.08-.83-1.66-1.08-1.71-.66-4.2-1.01-7.19-1.02-2.16,0-4.54.2-6.93.72v-.15s-2.41.8-2.41.8l-.04.02-1.36.44v.06c-1.59.66-3.04,1.49-4.39,2.46-.84.64-1.54,1.46-1.58,2.73-.02.69.33,1.49.92,1.96.58.47,1.25.63,1.85.63.15,0,.28,0,.4-.02h.11s.1-.02.1-.02c1.17-.25,2.89-.42,4.89-.7,1.72-.19,3.54-.33,5.12-.33,1.12,0,2.12.07,2.82.23.35.07.6.16.75.24.05.02.09.03.11.05.03.1.07.34.06.69.02,1.32-.55,3.78-1.31,6.17-.75,2.4-1.67,4.8-2.27,6.4-.15.37-.23.77-.23,1.21-.02.64.24,1.42.81,1.94.54.51,1.24.72,1.83.72h.02c.89-.02,1.64-.37,2.29-.87,6.1-5.5,8.22-14.26,8.31-19.18l-.02-.79h0Z"/>
      <path class="cls-1" d="m106.63,72.27c-3.59.27-7.73.55-11.86,1.09-6.35.84-12.69,1.94-17.93,4.43-10.21,4.14-17.11,12.96-17.11,25.93,0,16.28,10.48,24.56,23.73,24.56,4.41,0,8-.56,11.3-1.38,5.25-1.66,9.65-4.69,14.9-10.22,3.03,4.14,3.86,6.07,9.1,10.49,1.38.55,2.76.55,3.86-.27,3.32-2.77,9.11-7.73,12.13-10.49,1.39-1.1,1.11-2.76.28-4.13-3.03-3.87-6.06-7.18-6.06-14.64v-24.83c0-10.49.83-20.15-6.89-27.32-6.34-5.79-16.28-8-24-8h-3.31c-14.06.82-28.96,6.9-32.28,24.29-.55,2.21,1.11,3.03,2.21,3.31l15.44,1.93c1.66-.28,2.49-1.66,2.76-3.03,1.38-6.07,6.35-9.11,11.87-9.66h1.11c3.31,0,6.89,1.38,8.82,4.14,2.21,3.31,1.94,7.73,1.94,11.59v2.21Zm-3.04,32.84c-1.93,3.85-5.24,6.33-8.83,7.18-.55,0-1.38.27-2.21.27-6.06,0-9.65-4.7-9.65-11.59,0-8.84,5.25-12.98,11.87-14.91,3.59-.82,7.72-1.11,11.86-1.11v3.31c0,6.35.27,11.32-3.04,16.84Z"/>
    </g>
  </g>
</svg>