<?xml version="1.0" encoding="UTF-8"?>
<svg id="Soc-Med" xmlns="http://www.w3.org/2000/svg" viewBox="0 0 200 200">
  <defs>
    <style>
      .cls-1 {
        fill: #fff;
      }

      .cls-2 {
        fill: #85bf00;
      }
    </style>
  </defs>
  <g id="android">
    <path class="cls-2" d="m199.94,149.99c0,27.62-22.39,50.01-50.01,50.01H49.93C22.32,200-.06,177.61-.06,149.99V50C-.06,22.38,22.32,0,49.93,0h100c27.62,0,50.01,22.38,50.01,50v99.99Z"/>
    <g>
      <path class="cls-1" d="m116.89,47.97l1.38-2.05,1.37-2.01,3.07-4.52c.37-.56.22-1.31-.34-1.68-.57-.37-1.33-.22-1.71.34l-3.3,4.85-1.38,2.04-1.41,2.07c-4.44-1.7-9.41-2.64-14.64-2.64s-10.2.94-14.64,2.64l-1.41-2.07-1.38-2.04-3.3-4.85c-.38-.55-1.14-.71-1.71-.34-.55.37-.71,1.12-.33,1.68l3.06,4.52,1.37,2.01,1.39,2.05c-10.45,4.78-17.53,13.83-17.53,24.21h68.94c0-10.38-7.07-19.43-17.52-24.21Zm-31.72,14.53c-2.05,0-3.69-1.63-3.69-3.63s1.65-3.63,3.69-3.63,3.69,1.62,3.69,3.63-1.65,3.63-3.69,3.63Zm29.54,0c-2.05,0-3.69-1.63-3.69-3.63s1.65-3.63,3.69-3.63,3.69,1.62,3.69,3.63-1.66,3.63-3.69,3.63Z"/>
      <path class="cls-1" d="m134.41,130.25v-53.23h-68.94v53.23c0,4.22,3.49,7.67,7.8,7.67h5.62c-.18.64-.3,1.31-.3,2.01v15.32c0,4,3.31,7.25,7.4,7.25s7.39-3.25,7.39-7.25v-15.32c0-.7-.11-1.38-.3-2.01h13.72c-.18.64-.29,1.31-.29,2.01v15.32c0,4,3.31,7.25,7.39,7.25s7.39-3.25,7.39-7.25v-15.32c0-.7-.11-1.38-.3-2.01h5.63c4.3,0,7.79-3.44,7.79-7.67Z"/>
      <path class="cls-1" d="m45.77,84.28v31.05c0,4,3.3,7.25,7.39,7.25s7.39-3.25,7.39-7.25v-31.05c0-4.01-3.31-7.26-7.39-7.26s-7.39,3.25-7.39,7.26Z"/>
      <path class="cls-1" d="m139.34,84.28v31.05c0,4,3.3,7.25,7.38,7.25s7.39-3.25,7.39-7.25v-31.05c0-4.01-3.3-7.26-7.39-7.26s-7.38,3.25-7.38,7.26Z"/>
    </g>
  </g>
</svg>