<?xml version="1.0" encoding="UTF-8"?>
<svg id="Soc-Med" xmlns="http://www.w3.org/2000/svg" viewBox="0 0 200 200">
  <defs>
    <style>
      .cls-1 {
        fill: #fff;
      }
    </style>
  </defs>
  <g id="apple">
    <g>
      <path class="cls-1" d="m71.63,199.99c12.46-.51,17.15-8.2,32.2-8.2s19.28,8.2,32.44,7.94c13.38-.25,21.87-12.38,30.06-24.56,9.48-14.1,13.38-27.75,13.61-28.44-.29-.14-26.1-10.2-26.36-40.46-.24-25.33,20.3-37.48,21.22-38.09-11.55-17.18-29.54-19.54-35.95-19.81-15.3-1.58-29.84,9.17-37.61,9.17s-19.74-8.95-32.43-8.71c-16.68.25-32.06,9.88-40.65,25.08-17.32,30.6-4.43,75.94,12.46,100.78,8.25,12.14,18.09,25.79,31.01,25.3Z"/>
      <path class="cls-1" d="m110.1,15.14c-6.34,7.51-11.91,19.45-10.43,30.95,11.04.88,22.28-5.71,29.15-14.15C135.68,23.47,140.32,11.71,139.05,0c-9.88.4-21.85,6.69-28.95,15.14Z"/>
    </g>
  </g>
</svg>