<?xml version="1.0" encoding="UTF-8"?>
<svg id="Soc-Med" xmlns="http://www.w3.org/2000/svg" viewBox="0 0 200 200">
  <defs>
    <style>
      .cls-1 {
        fill: #fff;
      }

      .cls-2 {
        fill: #2196f3;
      }
    </style>
  </defs>
  <g id="behance">
    <path class="cls-2" d="m0,22.22C0,9.95,9.95,0,22.22,0h155.56c12.27,0,22.22,9.95,22.22,22.22v155.56c0,12.27-9.95,22.22-22.22,22.22H22.22c-12.27,0-22.22-9.95-22.22-22.22V22.22Z"/>
    <path class="cls-1" d="m116.67,61.11h38.89v11.11h-38.89v-11.11Zm-30.49,35.71c3.25-1.58,10.57-5.19,10.57-15.87,0-20.09-21.96-19.83-26.02-19.83h-37.4v77.78h39.03c3.25,0,27.64-.92,27.64-22.23,0-13.75-8.94-18.25-13.82-19.84Zm-36.18-22.22h16.27c1.62,0,12.19.58,12.19,8.73s-8.13,9.52-10.57,9.52h-17.89v-18.26Zm18.53,50.79h-18.71v-21.42h18.71c4.06,0,13.01,1.32,13.01,11.11s-11.38,10.31-13.01,10.31Zm78.34-.98c-2.58,1.61-5.16,2.42-8.61,2.42-12.92,0-15.49-10.89-15.49-15.72h43.89c0-4.83,0-8.39-.86-12.42-.87-4.03-6.75-20.92-28.39-20.92-30.25,0-31.86,26.54-31.86,30.56s.87,8.85,2.59,12.06c1.72,4.02,3.44,7.24,6.02,9.64,2.58,2.42,6.02,4.81,9.46,6.43,4.3,1.62,8.61,2.42,12.91,2.42,6.88,0,12.91-1.6,18.07-4.82,5.17-3.22,8.61-8.04,11.19-14.48h-14.63c-.86,1.61-1.72,3.21-4.3,4.83Zm-9.47-35.38c8.43,0,12.04,8.84,12.9,12.86h-27.53c0-.79,2.06-12.86,14.63-12.86Z"/>
  </g>
</svg>