<?xml version="1.0" encoding="UTF-8"?>
<svg id="Soc-Med" xmlns="http://www.w3.org/2000/svg" viewBox="0 0 200 200">
  <defs>
    <style>
      .cls-1 {
        fill: #fff;
      }

      .cls-2 {
        fill: #ff4081;
      }
    </style>
  </defs>
  <g id="dribble">
    <path class="cls-2" d="m200,172.22c0,15.34-12.43,27.78-27.78,27.78H27.78c-15.34,0-27.78-12.43-27.78-27.78V27.78C0,12.43,12.44,0,27.78,0h144.44c15.34,0,27.78,12.43,27.78,27.78v144.44Z"/>
    <path class="cls-1" d="m150.34,112.63c-3.91-1.23-8.13.97-9.37,4.97-4.58,14.77-12.87,30.11-16.63,30.94-2.82,0-6.87-2.39-10.88-8,9.3-19.97,14.17-45.03,14.17-61.77,0-46.74-11.8-56.56-21.71-56.56-20.87,0-21.11,55.07-21.11,55.62,0,6.48.23,12.49.67,18.09-2.88-1.05-6.18-1.77-9.83-1.77-21.44,0-31.21,21.16-31.21,40.82,0,18.52,10.39,37.24,33.59,37.24,10.96,0,20.19-7.17,27.64-17.89,6.6,6.86,13.51,9.42,18.67,9.42,16.24,0,26.99-29.07,30.87-41.59,1.24-3.99-.94-8.26-4.87-9.53Zm-72.29,44.39c-16.84,0-18.67-15.42-18.67-22.05,0-1.04.19-25.62,16.29-25.62,6.36,0,11.23,4.92,11.23,4.92.36.39.76.73,1.18,1.02,2.08,10.58,5.02,19.03,8.42,25.73-5.58,9.66-12.04,15.99-18.46,15.99Zm26.96-35.21c-3.11-10.72-5.26-25.12-5.26-43.97,0-17.37,3.7-33.71,6.77-39.29,2.36,3.58,6.19,14.72,6.19,40.23,0,13.53-2.99,29.26-7.71,43.03Z"/>
  </g>
</svg>