<?xml version="1.0" encoding="UTF-8"?>
<svg id="Soc-Med" xmlns="http://www.w3.org/2000/svg" viewBox="0 0 200 200">
  <defs>
    <style>
      .cls-1 {
        fill: #fff;
      }

      .cls-2 {
        fill: #49d1ee;
      }
    </style>
  </defs>
  <g id="dropbox">
    <path class="cls-2" d="m199.94,149.99c0,27.62-22.39,50.01-50,50.01H49.94C22.32,200-.06,177.61-.06,149.99V50C-.06,22.38,22.32,0,49.94,0h100c27.61,0,50,22.38,50,50v99.99Z"/>
    <g>
      <polygon class="cls-1" points="37.44 106.62 74.2 130.71 99.94 109.16 62.86 86.18 37.44 106.62"/>
      <polygon class="cls-1" points="74.2 41.67 37.44 65.75 62.86 86.18 99.94 63.21 74.2 41.67"/>
      <polygon class="cls-1" points="125.66 41.67 99.94 63.21 137.01 86.18 162.44 65.75 125.66 41.67"/>
      <polygon class="cls-1" points="125.66 130.71 162.44 106.62 137.01 86.18 99.94 109.16 125.66 130.71"/>
      <polygon class="cls-1" points="136.86 136.17 136.86 128.04 125.82 135.28 100.02 113.79 74.2 135.28 63.16 128.04 63.16 136.17 100.02 158.33 136.86 136.17"/>
    </g>
  </g>
</svg>