<?xml version="1.0" encoding="UTF-8"?>
<svg id="Soc-Med" xmlns="http://www.w3.org/2000/svg" viewBox="0 0 200 200">
  <defs>
    <style>
      .cls-1 {
        fill: #fff;
      }

      .cls-2 {
        fill: #039be5;
      }
    </style>
  </defs>
  <g id="facebook">
    <path class="cls-2" d="m100,0C44.77,0,0,44.77,0,100s44.77,100,100,100,100-44.77,100-100S155.23,0,100,0Z"/>
    <path class="cls-1" d="m113.54,126.51h25.88l4.06-26.29h-29.95v-14.37c0-10.92,3.57-20.61,13.78-20.61h16.42v-22.94c-2.88-.39-8.98-1.24-20.51-1.24-24.07,0-38.18,12.71-38.18,41.67v17.49h-24.74v26.29h24.74v72.26c4.9.74,9.86,1.24,14.96,1.24,4.61,0,9.1-.42,13.54-1.02v-72.47Z"/>
  </g>
</svg>