<?xml version="1.0" encoding="UTF-8"?>
<svg xmlns="http://www.w3.org/2000/svg" viewBox="0 0 242 215.8">
  <defs>
    <style>
      .cls-1 {
        fill: red;
      }
    </style>
  </defs>
  <g id="red_line" data-name="red line">
    <path class="cls-1" d="m242,204.85v10.95H0v-10.95h242Z"/>
  </g>
  <g id="find-my-icon-logo">
    <path d="m10.03,72.8H-.91V.17h31.16v11H10.03v19.81h14.77v11h-14.77v30.81Zm35.8,0h-10.95V.23h10.95v72.57ZM64.17.17l14.53,48.81V.17h10.95v72.63h-11.76l-15.06-46.51v46.51h-10.95V.17h12.29Zm66.42,55.25c0,4.79-1.68,8.88-5.04,12.28-3.36,3.4-7.41,5.1-12.16,5.1h-17.2V.17h17.2c4.79,0,8.85,1.7,12.19,5.1,3.34,3.4,5.01,7.47,5.01,12.22v37.94Zm-23.46,6.54h6.6c1.74,0,3.2-.63,4.4-1.88,1.2-1.25,1.8-2.73,1.8-4.43V17.67c0-1.74-.61-3.22-1.82-4.46-1.22-1.24-2.67-1.85-4.37-1.85h-6.6v50.62ZM20.93,193.91H4.54v-78.75h16.39v78.75Zm34.65,0c-7.23,0-13.37-2.53-18.43-7.59-5.06-5.06-7.59-11.17-7.59-18.34v-59.31c0-7.23,2.54-13.37,7.63-18.43,5.09-5.06,11.21-7.59,18.38-7.59s13.35,2.54,18.38,7.63c5.03,5.09,7.54,11.22,7.54,18.38v12.4h-17v-12.75c0-2.6-.93-4.83-2.77-6.68-1.85-1.85-4.08-2.78-6.68-2.78s-4.81.93-6.63,2.78c-1.82,1.85-2.73,4.08-2.73,6.68v59.48c0,2.6.91,4.81,2.73,6.63,1.82,1.82,4.03,2.73,6.63,2.73s4.83-.91,6.68-2.73c1.85-1.82,2.77-4.03,2.77-6.63v-15h17v15.17c0,7.23-2.54,13.35-7.63,18.38-5.09,5.03-11.19,7.54-18.3,7.54Zm148.29-110.12l21.75,73.08v-73.08h16.39v108.74h-17.6l-22.55-69.63v69.63h-16.39v-108.74h18.4Zm-74.07-1.3c24.55.01,43.14,16.48,45.76,38.31,1.01,8.4-.39,16.52-3.31,24.35-6.64,17.8-17.35,32.75-32.06,44.79-1.67,1.37-3.65,2.37-5.56,3.42-1.47.8-3.03.7-4.57.02-3.62-1.61-6.68-4.05-9.52-6.72-13.26-12.45-23.45-26.96-29.05-44.41-3.68-11.48-4.03-23.01,1.26-34.12,7.9-16.59,21.42-24.79,37.05-25.63Zm-18.94,28.59c-6.45,8.38-7.29,22.9,2.15,33.03,9.37,10.05,24.84,11.28,35.53,2.89,10.78-8.46,13.4-23.57,6.07-35.03-5.96-9.32-20.44-15.23-27.87-11.37,4.98,3.84,6.59,8.12,4.88,12.97-1.57,4.47-5.7,7.24-10.57,7.08-5.01-.16-8.39-3.29-10.21-9.57ZM3.4,104.04c4.52,4.85,11.98,5.44,17.14,1.39,5.2-4.08,6.46-11.36,2.93-16.89-2.87-4.49-9.86-7.34-13.44-5.49,2.4,1.85,3.18,3.92,2.36,6.26-.76,2.16-2.75,3.49-5.1,3.42-2.41-.08-4.05-1.59-4.92-4.62-3.11,4.04-3.52,11.05,1.04,15.93ZM182.69,0l-9.79,52.17L162.7,0h-15.71v72.63h10.94V27.11l10.6,45.52h8.81l9.49-45.64v45.64h10.95V0h-15.09Z"/>
    <polygon points="242.03 41.99 227.37 41.99 227.29 42.22 227.29 72.63 216.34 72.63 216.34 42.22 216.26 41.99 201.66 41.99 201.69 0 212.7 0 212.7 30.99 231 30.99 231 0 242 0 242.03 41.99"/>
  </g>
</svg>