<?xml version="1.0" encoding="UTF-8"?>
<svg xmlns="http://www.w3.org/2000/svg" viewBox="0 0 237.46 190.92">
  <defs>
    <style>
      .cls-1 {
        fill: red;
      }
    </style>
  </defs>
  <g id="red_line" data-name="red line">
    <path class="cls-1" d="m237.46,166.92v10.95H0v-10.95h237.46Z"/>
  </g>
  <g id="find-my-icon-logo">
    <path d="m10.95,72.63H0V0h31.16v11H10.95v19.81h14.77v11h-14.77v30.81Zm35.8,0h-10.95V.06h10.95v72.57ZM65.08,0l14.53,48.81V0h10.95v72.63h-11.76l-15.06-46.51v46.51h-10.95V0h12.29Zm66.42,55.25c0,4.79-1.68,8.88-5.04,12.28-3.36,3.4-7.41,5.1-12.16,5.1h-17.2V0h17.2c4.79,0,8.85,1.7,12.19,5.1,3.34,3.4,5.01,7.47,5.01,12.22v37.94Zm-23.46,6.54h6.6c1.74,0,3.2-.63,4.4-1.88,1.2-1.25,1.8-2.73,1.8-4.43V17.49c0-1.74-.61-3.22-1.82-4.46-1.22-1.24-2.67-1.85-4.37-1.85h-6.6v50.62ZM10.95,156.91H0v-50h10.95v50Zm22.15,0c-4.83,0-8.93-1.69-12.31-5.07-3.38-3.38-5.07-7.46-5.07-12.25v-39.62c0-4.83,1.7-8.93,5.1-12.31,3.4-3.38,7.49-5.07,12.28-5.07s8.92,1.7,12.28,5.1c3.36,3.4,5.04,7.49,5.04,12.28v8.28h-11.35v-8.51c0-1.74-.62-3.22-1.85-4.46-1.24-1.24-2.72-1.85-4.46-1.85s-3.21.62-4.43,1.85c-1.22,1.24-1.82,2.72-1.82,4.46v39.73c0,1.74.61,3.21,1.82,4.43,1.22,1.22,2.69,1.83,4.43,1.83s3.22-.61,4.46-1.83c1.23-1.22,1.85-2.69,1.85-4.43v-10.02h11.35v10.14c0,4.83-1.7,8.92-5.1,12.28-3.4,3.36-7.47,5.04-12.22,5.04Zm38.54-74.42c4.83,0,8.93,1.7,12.31,5.1,3.38,3.4,5.07,7.49,5.07,12.28v39.62c0,4.83-1.7,8.93-5.1,12.31-3.4,3.38-7.49,5.07-12.28,5.07s-8.92-1.7-12.28-5.1c-3.36-3.4-5.04-7.49-5.04-12.28v-39.62c0-4.83,1.7-8.93,5.1-12.31,3.4-3.38,7.47-5.07,12.22-5.07Zm5.97,17.14c0-1.74-.61-3.21-1.82-4.43-1.22-1.22-2.69-1.82-4.43-1.82s-3.22.61-4.46,1.82c-1.24,1.22-1.85,2.69-1.85,4.43v39.73c0,1.74.62,3.21,1.85,4.43,1.24,1.22,2.72,1.82,4.46,1.82s3.21-.61,4.43-1.82c1.22-1.22,1.82-2.69,1.82-4.43v-39.73Zm28.42-16.27l14.53,48.81v-48.81h10.95v72.63h-11.76l-15.06-46.51v46.51h-10.95v-72.63h12.29Zm47.37-10.72h-10.95V0h15.71l10.2,52.17L178.15,0h15.09v72.63h-10.95V26.99l-9.5,45.64h-8.8l-10.6-45.52v45.52Zm58.41-30.41L197.15,0h12.05l8.11,26.06L225.36,0h12.11l-14.71,42.22v30.41h-10.95v-30.41Zm-24.3,40.26c23.89.01,41.98,16.04,44.54,37.28.98,8.17-.38,16.07-3.22,23.7-6.46,17.32-16.89,31.87-31.2,43.59-1.62,1.33-3.55,2.31-5.41,3.32-1.43.78-2.95.68-4.45.02-3.52-1.57-6.5-3.94-9.27-6.54-12.91-12.12-22.82-26.24-28.27-43.22-3.58-11.17-3.92-22.4,1.23-33.2,7.69-16.14,20.85-24.12,36.06-24.94Zm-18.43,27.83c-6.28,8.16-7.09,22.29,2.1,32.14,9.12,9.78,24.17,10.98,34.58,2.81,10.49-8.24,13.04-22.93,5.91-34.09-5.8-9.07-19.89-14.82-27.12-11.07,4.85,3.73,6.42,7.91,4.75,12.63-1.53,4.35-5.55,7.04-10.28,6.89-4.87-.15-8.16-3.2-9.93-9.32ZM1.46,97.2c1.94,2.08,5.15,2.34,7.37.6,2.24-1.75,2.78-4.89,1.26-7.26-1.24-1.93-4.24-3.16-5.78-2.36,1.03.8,1.37,1.68,1.01,2.69-.33.93-1.18,1.5-2.19,1.47-1.04-.03-1.74-.68-2.12-1.98-1.34,1.74-1.51,4.75.45,6.85Z"/>
  </g>
</svg>