<?xml version="1.0" encoding="UTF-8"?>
<svg id="Soc-Med" xmlns="http://www.w3.org/2000/svg" viewBox="0 0 200 200">
  <defs>
    <style>
      .cls-1 {
        fill: #e1e7ea;
      }

      .cls-2 {
        fill: #ff4081;
      }

      .cls-3 {
        fill: #1565c0;
      }
    </style>
  </defs>
  <g id="flickr">
    <path class="cls-1" d="m0,22.22C0,10,10,0,22.22,0h155.56c12.22,0,22.22,10,22.22,22.22v155.56c0,12.22-10,22.22-22.22,22.22H22.22c-12.22,0-22.22-10-22.22-22.22V22.22Z"/>
    <path class="cls-3" d="m55.56,61.11c-21.48,0-38.89,17.41-38.89,38.89s17.41,38.89,38.89,38.89,38.89-17.41,38.89-38.89-17.41-38.89-38.89-38.89Z"/>
    <path class="cls-2" d="m144.44,61.11c-21.48,0-38.89,17.41-38.89,38.89s17.41,38.89,38.89,38.89,38.89-17.41,38.89-38.89-17.41-38.89-38.89-38.89Z"/>
  </g>
</svg>