<?xml version="1.0" encoding="UTF-8"?>
<svg id="Soc-Med" xmlns="http://www.w3.org/2000/svg" viewBox="0 0 200 200">
  <defs>
    <style>
      .cls-1 {
        fill: #fff;
      }

      .cls-2 {
        fill: #ff3b21;
      }
    </style>
  </defs>
  <g id="google-plus">
    <rect class="cls-2" x="-.06" width="200" height="200" rx="50" ry="50"/>
    <g>
      <path class="cls-1" d="m133.01,121.52h5.37c1.44,0,2.6-1.17,2.6-2.61v-18.88h18.85c1.43,0,2.6-1.17,2.6-2.62v-5.37c0-1.44-1.17-2.62-2.6-2.62h-18.85v-18.88c0-1.43-1.16-2.61-2.6-2.61h-5.37c-1.44,0-2.61,1.17-2.61,2.61v18.88h-18.85c-1.43,0-2.6,1.17-2.6,2.62v5.37c0,1.44,1.17,2.62,2.6,2.62h18.85v18.88c0,1.44,1.17,2.61,2.61,2.61Z"/>
      <path class="cls-1" d="m58.77,154.42c4.77,1.22,9.9,1.83,15.22,1.83,4.78,0,9.34-.63,13.56-1.85,13.14-3.82,21.64-13.51,21.64-24.7s-3.44-17.16-12.69-23.72c-3.96-2.81-7.57-6.93-7.63-8.2,0-2.31.2-3.41,5.37-7.44,6.68-5.23,10.36-12.12,10.36-19.4,0-6.6-2.01-12.46-5.44-16.58h2.66c.55,0,1.09-.17,1.53-.49l7.41-5.38c.92-.66,1.31-1.84.95-2.92-.35-1.08-1.35-1.81-2.48-1.81h-33.15c-3.63,0-7.32.64-10.93,1.88-12.08,4.17-20.53,14.49-20.53,25.09,0,14.99,11.6,26.37,27.11,26.73-.3,1.19-.46,2.36-.46,3.51,0,2.31.59,4.5,1.79,6.61-.15,0-.28,0-.43,0-14.78,0-28.12,7.26-33.19,18.08-1.33,2.81-1.99,5.65-1.99,8.46s.7,5.36,2.07,7.83c3.19,5.71,10.03,10.13,19.26,12.47Zm2.95-84.1c-.72-5.5.43-10.43,3.17-13.55,1.77-2.02,4.08-3.08,6.66-3.08h.3c7.32.22,14.33,8.4,15.62,18.24.72,5.51-.5,10.69-3.26,13.85-1.77,2.02-4.04,3.08-6.75,3.08h-.12c-7.18-.21-14.34-8.72-15.62-18.54Zm14.09,45.58h.3c2.46.03,4.85.4,7.11,1.09.77.53,1.52,1.04,2.25,1.53,5.22,3.57,8.67,5.93,9.64,9.71.22.95.33,1.9.33,2.82,0,9.73-7.24,14.66-21.52,14.66-10.83,0-19.3-6.65-19.3-15.15,0-7.81,9.9-14.67,21.19-14.67Z"/>
    </g>
  </g>
</svg>