<?xml version="1.0" encoding="UTF-8"?>
<svg id="Soc-Med" xmlns="http://www.w3.org/2000/svg" viewBox="0 0 200 200">
  <defs>
    <style>
      .cls-1 {
        fill: #ff651e;
      }

      .cls-2 {
        fill: #fff;
        isolation: isolate;
      }
    </style>
  </defs>
  <g id="html5">
    <rect class="cls-1" x="-.06" width="200" height="200" rx="50" ry="50"/>
    <g>
      <polygon class="cls-2" points="68.35 48.74 73.69 48.74 73.69 54.4 79.53 54.4 79.53 37.5 73.69 37.5 73.69 43.08 68.35 43.08 68.35 37.5 62.52 37.5 62.52 54.4 68.35 54.4 68.35 48.74"/>
      <polygon class="cls-2" points="87.2 54.4 93.03 54.4 93.03 43.11 98.17 43.11 98.17 37.5 82.06 37.5 82.06 43.11 87.2 43.11 87.2 54.4"/>
      <polygon class="cls-2" points="106.44 46.03 110.45 52.04 110.55 52.04 114.56 46.03 114.56 54.4 120.38 54.4 120.38 37.5 114.3 37.5 110.55 43.45 106.81 37.5 100.73 37.5 100.73 54.4 106.44 54.4 106.44 46.03"/>
      <polygon class="cls-2" points="137.32 48.82 129.12 48.82 129.12 37.5 123.28 37.5 123.28 54.4 137.32 54.4 137.32 48.82"/>
      <path class="cls-2" d="m54.1,61.82l8.35,90.61,37.47,10.07,37.49-10.06,8.36-90.62H54.1Zm73.56,29.63h-43.93l1.05,11.38h41.84l-3.14,34.13-23.54,6.31h-.02s-23.52-6.31-23.52-6.31l-1.64-17.85h11.53l.85,9.26,12.79,3.35h.02s12.8-3.35,12.8-3.35l1.34-14.41h-39.8l-3.09-33.61h57.51l-1.03,11.11Z"/>
    </g>
  </g>
</svg>