<?xml version="1.0" encoding="UTF-8"?>
<svg id="Soc-Med" xmlns="http://www.w3.org/2000/svg" viewBox="0 0 200 200">
  <defs>
    <style>
      .cls-1 {
        fill: #fff;
      }

      .cls-2 {
        fill: #4928f4;
      }

      .cls-3 {
        fill: #6200ea;
      }

      .cls-4 {
        fill: #d81b60;
      }

      .cls-5 {
        fill: #ffecb3;
      }

      .cls-6 {
        fill: #ff5722;
      }

      .cls-7 {
        fill: #673ab7;
      }

      .cls-8 {
        fill: #8e24aa;
      }

      .cls-9 {
        fill: #ffd54f;
      }

      .cls-10 {
        fill: #ffc107;
      }

      .cls-11 {
        fill: #c2185b;
      }

      .cls-12 {
        fill: #304ffe;
      }

      .cls-13 {
        fill: #ff1744;
      }

      .cls-14 {
        fill: #ffe082;
      }

      .cls-15 {
        fill: #ff6f00;
      }

      .cls-16 {
        fill: #f50057;
      }

      .cls-17 {
        fill: #ff9800;
      }
    </style>
  </defs>
  <g id="instagram">
    <path class="cls-12" d="m198.17,41.56c-2.22,1.44-5.39,2.78-6.72,4.28-.5.5-.78,1.06-.67,1.61v5.72l-1.67,5.61-1.67,5.56-1.83,6.11-3.78,12.5-3.67,12.33-2.78,9.28c0,1.44-.06,2.89-.17,4.28-.39,5.33-1.5,10.44-3.28,15.22-1.06,2.94-2.33,5.78-3.89,8.44-.56,1.06-1.22,2.11-1.89,3.11-2.22,3.5-4.89,6.72-7.83,9.56-2.28,2.28-4.78,4.39-7.5,6.17h-.06c-.44.39-.94.72-1.5,1-1.72,1.17-3.56,2.17-5.44,3.06-1.28.67-2.56,1.22-3.89,1.72-.28.17-.61.28-.89.39-3.17,1.5-6.83,2.5-10.5,3-.22.06-.39.06-.61.11-2.22.39-4.39.72-6.61.89-1,.11-2.06.17-3.06.17l-3.94-.22-19-1c0-.06-.06,0-.06,0l-9.56-.5c-.72,0-1.5,0-2.22-.06-3-.11-5.89-.44-8.78-1.06h-.06c-5.28-1-10.33-2.78-15.06-5.17-2.61-1.33-5.17-2.83-7.56-4.56-1-.72-1.94-1.5-2.89-2.33-2.67-2.22-5.06-4.61-7.28-7.06-.33-.33-.61-.67-.89-1-.33-.33-.67-.72-.94-1.06-2.11-2.67-3.89-5.39-5.33-8.28-1.33-2.56-2.39-5.28-3.22-8.28-.33-1.06-.61-2.06-.83-3.17-.06-.06-.11-.17-.11-.28-.56-2.28-1.06-4.67-1.33-7.06-.33-1.83-.5-3.67-.5-5.56-.11-.72-.11-1.5-.11-2.22l10.61-16.39,10.39-16,4.72-7.28,4.28-6.56,1.44-2.28v-5.72c.11-1.28.17-2.61.11-3.83-.06-3.89-.83-7.67-2.11-11.28-1.22-3.83-2.94-7.44-4.72-10.78-2.11-3.83-4.33-7.28-6.17-10.39-2.72-4.56-4.61-8.28-4.11-10.89,4-.94,8.22-1.44,12.5-1.44h88.89c23.22,0,43.22,14.44,51.5,34.78.89,2.17,1.67,4.44,2.22,6.78Z"/>
    <path class="cls-2" d="m200,55.56v1.5l-7.67,4.44-4.89,2.83-5.39,3.11-10.78,6.28-10.56,6.11-10.78,6.22-4.28,2.5c0,2.67-.67,5.11-1.89,7.33-1.72,3.22-4.61,5.89-8.28,8.17-3.72,2.28-8.28,4.11-13.39,5.44,0,0,0-.06-.06,0-19.78,5.11-46.78,2.78-59.89-7-3.67-2.72-6.22-6.06-7.33-9.89-.33-1.28-.5-2.67-.5-4.06v-39.94c.06-.83-.5-1.67-1.5-2.5-3-2.39-10.06-4.67-17.94-6.94-6.17-1.72-12.78-3.44-18.33-5.11-4.39-1.33-8.11-2.67-10.33-3.94,1-1.94,2.17-3.89,3.39-5.72C17.39,13,29.28,4.61,43.06,1.44c4-.94,8.22-1.44,12.5-1.44h60c29.83,5.22,57.33,17.39,80.39,34.78.89,2.17,1.67,4.44,2.22,6.78,1,3.67,1.61,7.44,1.78,11.39.06.83.06,1.72.06,2.61Z"/>
    <path class="cls-3" d="m200,55.56v24.5l-1.22,3.78-4.17,12.94-4.33,13.33-2.28,7.11-2.11,6.61-2.06,6.28-2,6.22-1.06,3.28-1.39,4.33c0,4.22-.11,7.94-.39,11.11-.06.33-.11.67-.11,1-.33,2.94-.78,5.44-1.5,7.56-.06.33-.17.67-.28.94-1.44,4-3.61,6.56-6.83,8.22-.78.44-1.67.78-2.61,1.11-2.94,1-6.67,1.5-11.22,1.78-3.33.22-7.17.28-11.5.28h-3.83l-6.61-.28-1.17-.06-12.06-.5-12.22-.5-40.28-1.67-10.44-.44h-1.44c-4.33-.06-8.06-.33-11.28-.78-4.67-.72-8.28-1.94-11-3.78-3.89-2.5-6.17-6.17-7.5-11.28-.33-1.22-.61-2.5-.78-3.89-.56-3.22-.83-6.94-1-11.11,0-.83,0-1.67-.06-2.56-.06-.06,0-.06,0-.06v-3.22c-.06-1.61-.06-3.28-.06-5l.28-8.94.17-6.39.22-7.44v-1.06l.39-13.67.39-13.67.39-12.83.33-12.61.11-3.33c0-1.72-5.83-2.72-12.33-3.56-5.17-.67-10.83-1.28-14.22-2.06.28-1.28.56-2.56.89-3.78,1-4,2.5-7.78,4.39-11.39,1-1.94,2.17-3.89,3.39-5.72,12-5.28,24.5-9.39,37.56-12.06,11.44-2.39,23.39-3.67,35.72-3.67,40.89,0,78.67,13.83,108.56,37.17,2.89,2.22,5.72,4.61,8.5,7.11.06.83.06,1.72.06,2.61Z"/>
    <path class="cls-7" d="m200,68.72v25.22l-3.06,5.89-5.83,11.39-3.11,6-2.83,5.5-1.22,2.39c0,1.72,0,3.39-.11,5,0,2.39-.11,4.67-.28,6.78-.22,2.5-.56,4.78-.89,6.89-.83,4.39-2,8.17-3.67,11.28-.22.39-.44.78-.67,1.11-.61,1-1.33,1.94-2.11,2.83-1,1.22-2.11,2.28-3.39,3.17-1.89,1.44-4.11,2.61-6.67,3.5-3.17,1.17-6.83,1.94-11.17,2.39-2.83.28-5.94.44-9.33.44l-2.33.11-11.56.67h-.06l-12.28.72-12.5.72-17.22,1-20.94,1.22-3.06.17c-2.83,0-5.5-.17-8.06-.5-.28-.06-.5-.11-.78-.11-3.78-.61-7.22-1.61-10.33-3-3.78-1.67-7.06-3.89-9.83-6.56-2.44-2.39-4.56-5.11-6.28-8.17-.39-.72-.78-1.39-1.11-2.17-1.67-3.28-3-6.94-4-10.94-.17-.67-.33-1.39-.44-2.11-.33-1.28-.61-2.61-.78-4-.61-3.56-.94-7.33-1.11-11.28v-.06c-.06-1.61-.11-3.17-.11-4.83l-2.72-6.5-.39-1-.33-.83-4.17-9.94-.67-1.61-4-9.61-4.44-10.72h-.06l-4.5-10.83-1.61-3.94v-8.83c0-3.5.33-6.94.94-10.28.28-1.28.56-2.56.89-3.78,4.72-2.72,9.67-5.22,14.72-7.44,11.56-5.17,23.94-9,36.78-11.33,9.56-1.72,19.5-2.67,29.56-2.67,40.61,0,77.44,14.72,106.22,38.72,1.11.89,2.17,1.78,3.22,2.72,2.61,2.28,5.17,4.67,7.67,7.22Z"/>
    <path class="cls-8" d="m200,85.28v28.56l-3.17,6.61-6,12.5-.06.17c0,2.39-.11,4.56-.28,6.5-.56,6.39-2.11,10.44-4.67,12.94-1.83,1.89-4.11,2.94-6.94,3.5-.17.06-.39.06-.56.11-.89.17-1.83.28-2.83.28-3.44.33-7.5.11-12.17-.22-.5,0-1.06-.06-1.61-.11-3.39-.22-7-.44-11-.61-2.17-.06-4.44-.11-6.78-.11h-.11l-5.61.44h-.06l-12.61.89-14.39,1.11-2.11.17-16.83,1.22-8.72.67-8.61.61c-1.5,0-2.94,0-4.39-.06,0,0-.06-.06-.06,0-6.28-.11-11.89-.5-16.89-1.44-4.61-.78-8.67-2-12.11-3.83-3.56-1.72-6.5-4.17-8.89-7.28-2.28-3.06-3.94-6.89-5-11.5v-.06c-.78-3.72-1.22-8.06-1.22-12.94l-.83-1.5-4.94-8.83-.72-1.22-.39-.78-5.17-9.17-2.56-4.61-3.22-5.72-5.56-9.94-2.94-5.22v-20.44c4.89-3.22,9.94-6.06,15.17-8.61,6.33-3.22,12.89-5.94,19.72-8.17,7.44-2.44,15.22-4.39,23.17-5.67,8.06-1.33,16.33-2,24.83-2,37.78,0,72.44,13.5,99.17,35.94,1.22.94,2.39,2,3.56,3,4.67,4.17,9.11,8.67,13.17,13.39.44.5.89.94,1.22,1.44Z"/>
    <path class="cls-11" d="m200,103.94v40.17c-1.33-.78-3.17-1.72-5.44-2.72-1.22-.61-2.61-1.22-4.06-1.78-2.11-.94-4.39-1.83-6.94-2.72-.56-.22-1.11-.39-1.72-.56-1-.39-2.06-.72-3.11-1.06-3.28-1-6.89-1.94-10.67-2.78-1.44-.28-2.94-.56-4.44-.78-4.83-.83-10-1.33-15.39-1.39-.44-.06-.94-.06-1.39-.06l-14.28.11-19.44.11h-.06l-41.61.33c-13.22,0-21.33,3.17-26.22,4.44,0,0-.06,0-.06.06-5.17,1.33-6.78.5-7.22-8.56-.11-2.5-.17-5.72-.17-9.67l-3.11-2.39-5.44-4.11-3.33-2.56-.67-.5-9.22-7-1.39-1.06-2.89-2.22-5.33-4-6.39-4.89v-18.89c.56-.44,1.06-.83,1.61-1.17,8.06-5.56,16.67-10.28,25.78-14.11,8.11-3.44,16.67-6.17,25.44-8.11,2.39-.5,4.83-1,7.33-1.33,7.39-1.28,15-1.89,22.72-1.89,33.39,0,64.06,11.61,88.39,30.83,3.67,2.89,7.22,5.94,10.56,9.22,4.56,4.33,8.83,8.94,12.78,13.83.78,1,1.56,2,2.33,3.06,1.06,1.33,2.06,2.72,3.06,4.11Z"/>
    <path class="cls-4" d="m200,126.22v18.22c0,3.61-.33,7.17-1,10.61-1,5.11-2.72,10-5.06,14.56-1.22.28-2.61.28-4.17.06-3.5-.61-7.61-2.44-12.06-4.83-.22-.06-.44-.17-.61-.28-1.39-.72-2.83-1.5-4.28-2.39-2.94-1.61-6.06-3.39-9.17-5.06-.67-.33-1.33-.67-1.94-1-3.56-1.83-7.22-3.5-10.89-4.78h-.06c-.78-.28-1.61-.56-2.44-.78-3.17-.89-6.39-1.44-9.5-1.44l-6.11-1.78-27.06-7.83h-.06l-16.61-4.83h-.06l-7.22-2.11c-20.89,0-33.72,8.89-39.94,5.5-2.44-1.28-3.89-4.5-4.39-10.83-.17-1.78-.22-3.78-.22-6.11l-6.5-3.17-.28-.11h-.06l-4.67-2.33-5.11-2.44-.39-.17-.94-.5-10.89-5.28-8.33-4.06v-19.06c.94-.83,1.94-1.61,2.94-2.39,1.06-.83,2.11-1.61,3.17-2.44h.06c6.56-4.72,13.5-8.89,20.89-12.33,8.61-4.11,17.78-7.28,27.28-9.33,1.39-.33,2.83-.67,4.28-.89,7.89-1.5,16-2.28,24.28-2.28,29.28,0,56.17,9.5,77.83,25.5,6.28,4.67,12.11,9.83,17.44,15.44,4.39,4.61,8.44,9.61,12.11,14.83.28.39.56.78.83,1.11,2.06,3,3.94,6.06,5.72,9.22,1.17,1.89,2.17,3.83,3.17,5.78Z"/>
    <path class="cls-16" d="m199,155.06c-1,5.11-2.72,10-5.06,14.56-1.06,2.06-2.22,4-3.5,5.89-.78,1.17-1.61,2.28-2.44,3.33-2-.78-4.94-1.89-8.56-3.11v-.06c-2.72-.94-5.83-1.94-9.17-2.89-.94-.28-1.89-.56-2.89-.83-3.94-1.06-8.06-2-12.06-2.56-3.33-.56-6.61-.89-9.67-.89l-2.56-.72h-.06l-13.44-3.89-8.28-2.39-9.22-2.67h-.06l-3-.83-36.28-10.44-10.44-3-7.78-1.83-12.67-3-1.56-.39h-.06l-12.72-2.94v-.06l-2.28-.5-1.17-.28-9.28-2.17-1.06-.28-7.89-6.5-5.89-4.94v-22.67c2.06-2,4.17-3.89,6.39-5.72.67-.61,1.39-1.17,2.11-1.72.67-.56,1.39-1.11,2.11-1.67,5.06-3.83,10.39-7.28,16.06-10.22,7.22-3.89,14.89-7,22.94-9.22,1.56-.5,3.11-.94,4.72-1.28,9.11-2.28,18.67-3.44,28.56-3.44,24.83,0,47.94,7.5,67.06,20.33,9.5,6.39,18.06,14.06,25.28,22.78,3.67,4.39,7,9,9.94,13.89.28.39.5.72.72,1.11,1.78,2.94,3.44,6,4.94,9.11,1.39,2.78,2.61,5.56,3.72,8.44,1.78,4.44,3.22,9,4.44,13.67Z"/>
    <path class="cls-13" d="m190.44,175.5c-.78,1.17-1.61,2.28-2.44,3.33-2.44,3.06-5.11,5.83-8.11,8.28-2.61,2.17-5.39,4.11-8.33,5.78-1.11-.28-2.22-.61-3.39-1.06-3.67-1.28-7.5-3.39-11.06-5.61-5.33-3.39-9.94-7.06-12-8.72-.78-.67-1.17-1-1.17-1l-9.44-.83-1.17-.11-12.22-1.06-12.67-1.11-18.72-1.67-29.67-2.61-.11-.06-10.44-5.06-10.56-5.11-8.5-4.11-1.83-.89-2.28-1.11-7.89-3.83-10.5-5.06-3.28-1.61-4.67-1.44v-24.83c2.61-3.11,5.39-6.06,8.33-8.89,1.89-1.78,3.89-3.56,5.94-5.22.33-.28.67-.56,1-.78.22-.28.5-.44.72-.56,3.28-2.67,6.72-5.06,10.28-7.22,4.11-2.61,8.44-4.94,12.94-6.89,4.83-2.17,9.89-4,15.11-5.39,9.06-2.56,18.67-3.89,28.56-3.89,22.67,0,43.61,6.89,60.89,18.72,11.06,7.56,20.61,17.11,28.17,28.17,2.5,3.56,4.72,7.33,6.78,11.22.72,1.44,1.44,2.89,2.06,4.33.67,1.39,1.28,2.78,1.89,4.17,1.17,2.89,2.22,5.78,3.17,8.78,1.78,5.56,3.11,11.22,3.94,17.11.28,1.94.5,3.89.67,5.83Z"/>
    <path class="cls-6" d="m179.94,185.67c0,.44,0,.94-.06,1.44-2.61,2.17-5.39,4.11-8.33,5.78-1.22.67-2.44,1.33-3.72,1.89-1.28.61-2.56,1.17-3.89,1.67-1.89-1-4.44-2.22-7.17-3.39-3.83-1.72-8-3.28-11.22-3.78-.78-.17-1.5-.22-2.17-.22l-9.11-1.17h-.11l-11.33-1.5-11.44-1.5-5.33-.67-42-5.44c-2.72,0-5.61-.17-8.61-.56-3.67-.33-7.5-.89-11.33-1.67-3.78-.67-7.61-1.56-11.28-2.5-3.83-.89-7.61-1.94-11.11-2.94-4.06-1.22-7.83-2.39-11-3.44-2.61-.83-4.83-1.61-6.56-2.22-1-2.39-1.83-4.89-2.44-7.44-1.17-4.33-1.72-8.89-1.72-13.56v-9.28c1.78-2.94,3.72-5.83,5.89-8.56,3.94-5.22,8.44-10,13.33-14.22.17-.22.39-.39.56-.5l.06-.06c1.72-1.56,3.5-2.94,5.39-4.28.22-.22.44-.39.67-.56.89-.67,1.83-1.33,2.83-1.94,7.94-5.39,16.72-9.61,26.11-12.44,8.89-2.67,18.28-4.06,28.06-4.06,19.39,0,37.5,5.72,52.61,15.5,11.17,7.17,20.78,16.61,28.11,27.67.89,1.28,1.72,2.56,2.56,3.89,3.83,6.5,7,13.5,9.33,20.83.28.83.5,1.67.72,2.56.44,1.5.83,3.06,1.17,4.61.11.39.22.78.33,1.22.78,3.5,1.33,7.17,1.72,10.83v.06c.33,3.28.5,6.61.5,9.94Z"/>
    <path class="cls-15" d="m168.5,185.67c0,1.94-.11,4.06-.33,6.17-.11,1-.22,2-.33,2.94-1.28.61-2.56,1.17-3.89,1.67-2.5.94-5.06,1.72-7.67,2.28-1.78.39-3.61.72-5.44.89h-.06c-1.72-1.06-3.72-2.33-5.78-3.78-3.72-2.61-7.61-5.56-10.72-7.94q-.06-.06-.11-.11c-3.28-2.5-5.61-4.39-5.61-4.39l-5.89.22-11.33.39-5.28.22-21.22.78-17.94.67c-1.17.06-2.56.06-4.28,0h-.06c-2.33-.06-5.11-.22-8.17-.5-3.56-.28-7.44-.61-11.39-1-3.83-.44-7.72-.89-11.44-1.33-4.11-.44-8-.94-11.33-1.39-2.61-.33-4.89-.61-6.72-.83-1.56-1.78-2.94-3.61-4.28-5.61-2-3-3.72-6.17-5.06-9.56-1-2.39-1.83-4.89-2.44-7.44,1.61-4.94,3.72-9.61,6.22-14.11,2-3.67,4.33-7.17,6.89-10.5,2.5-3.28,5.22-6.33,8.17-9.11v-.06c.83-.83,1.67-1.61,2.5-2.33,1.56-1.44,3.17-2.78,4.83-4.06h.06c.06-.11.11-.11.17-.17,1.33-1.06,2.72-2,4.11-2.94,8.22-5.61,17.5-9.78,27.5-12.22,6.61-1.61,13.56-2.5,20.72-2.5,14.11,0,27.44,3.39,39.17,9.5h.06c10.06,5.17,18.94,12.28,26.11,20.83,3.94,4.56,7.33,9.56,10.11,14.83,1.94,3.56,3.61,7.28,5,11.06.11.33.22.61.33.89.94,2.78,1.78,5.67,2.5,8.56.5,2.06.89,4.17,1.22,6.28.11.67.22,1.28.28,1.94.56,3.83.83,7.78.83,11.78Z"/>
    <path class="cls-17" d="m157.11,185.67v.56c0,1.89-.17,4.28-.33,6.83-.17,1.89-.33,3.83-.5,5.67-1.78.39-3.61.72-5.44.89h-.06c-2.11.28-4.17.39-6.33.39h-9.72l-2.11-.61-10.94-3.33-11.11-3.33-25.72-7.72-11.11-3.33s-4.61,1.83-11.11,4h-.06c-2.5.83-5.22,1.72-8.11,2.61-3.61,1.06-7.44,2.11-11.22,2.94-3.89.89-7.72,1.56-11.17,1.83-1.06.11-2.11.17-3.06.17-3.11-1.72-6.11-3.78-8.83-6.06-2.39-2-4.61-4.17-6.67-6.56-1.56-1.78-2.94-3.61-4.28-5.61.39-2.5.83-4.94,1.5-7.33,1.67-6.61,4.28-12.94,7.72-18.72,1.89-3.28,4-6.44,6.44-9.39.06-.17.22-.33.39-.44-.06-.06,0-.06,0-.06.72-.94,1.5-1.83,2.28-2.67v-.06c2.28-2.44,4.61-4.78,7.17-6.94.89-.72,1.72-1.44,2.67-2.17.17-.17.33-.28.56-.44,12.5-9.56,28.11-15.33,44.94-15.33,19.11,0,36.5,7.17,49.67,18.94,6.33,5.72,11.72,12.56,15.78,20.17.33.56.67,1.17.94,1.78.5,1,1,2.06,1.44,3.17,1.83,4,3.28,8.22,4.28,12.56.11.44.22.89.33,1.33.44,2.06.83,4.17,1.11,6.28.44,3.28.67,6.61.67,10Z"/>
    <path class="cls-10" d="m145.67,185.67c0,1.11-.06,2.33-.11,3.61-.11,2.06-.28,4.28-.56,6.56-.11,1.39-.33,2.78-.56,4.17h-30.44l-5.89-.94-23-3.67-3.28-.5-7.5-1.22c-3.28,0-10.39,1.44-17.89,2.83-3.94.72-7.94,1.5-11.56,2-.44.06-.89.11-1.28.17h-.06c-3.89-.83-7.67-2.11-11.22-3.78-1.11-.5-2.22-1.06-3.33-1.67-3.11-1.72-6.11-3.78-8.83-6.06-.06-.67-.11-1.22-.11-1.5,0-1.44.06-2.83.17-4.22.22-3.56.72-7,1.5-10.33,1.22-5.06,3-9.94,5.39-14.44.44-.94.94-1.89,1.5-2.78.22-.44.5-.83.72-1.28,1-1.61,2.11-3.17,3.22-4.72,2.33-3.06,4.94-5.94,7.72-8.56h.06c.22-.22.44-.44.67-.61.28-.22.5-.5.78-.67,1.11-1,2.22-1.89,3.39-2.72,0-.06.06-.06.06-.06,10.5-7.83,23.5-12.44,37.67-12.44,11,0,21.22,2.78,30.17,7.67h.06c7.67,4.22,14.33,9.94,19.61,16.83,2.06,2.67,3.89,5.5,5.44,8.5h.06l.83,1.67c1.67,3.28,3,6.72,4,10.28h.06c.06.28.17.56.22.83.67,2.39,1.22,4.83,1.61,7.33.06.5.11,1.06.17,1.56.39,2.67.56,5.39.56,8.17Z"/>
    <path class="cls-9" d="m134.28,185.06c0,.89,0,1.83-.11,2.72v.11c-.11,4-.67,7.94-1.56,11.5,0,.22-.06.39-.17.61h-25.94l-21.39-4.61-2.83-.61-.44.11-23.72,4.89-1.06.22h-1.5c-3.56,0-7.06-.33-10.44-1l-1.5-.33h-.06c-3.89-.83-7.67-2.11-11.22-3.78-.11-.61-.22-1.22-.28-1.83-.39-2.39-.56-4.89-.56-7.39,0-.94,0-1.89.06-2.83.17-3,.61-5.94,1.28-8.78.44-2.11,1.06-4.17,1.78-6.11.61-1.72,1.33-3.39,2.11-5,.67-1.39,1.44-2.72,2.22-4.06.78-1.28,1.61-2.5,2.5-3.72,2.22-3.06,4.83-5.89,7.72-8.39,1.67-1.44,3.5-2.83,5.39-4.06,8.11-5.33,17.83-8.44,28.33-8.44,2.06,0,4.06.11,6,.39h.11c5.94.67,11.5,2.33,16.61,4.83h.06c8.06,3.94,14.89,9.89,19.89,17.22.83,1.22,1.67,2.56,2.39,3.89.61,1.06,1.17,2.17,1.67,3.28.78,1.72,1.5,3.56,2.11,5.39h.06c.61,2.06,1.17,4.11,1.56,6.28v.06c.61,3.06.94,6.22.94,9.44Z"/>
    <path class="cls-14" d="m122.83,186.22v.17c0,3.28-.39,6.5-1.17,9.67-.28,1.33-.67,2.67-1.17,3.94h-24.89l-12.72-3.5-12.72,3.5h-14.61c-3.56,0-7.06-.33-10.44-1-.11-.17-.17-.33-.22-.5-.78-2.39-1.39-4.78-1.67-7.28-.22-1.61-.33-3.28-.33-5,0-.67,0-1.39.11-2.06.06-2.61.44-5.17,1.11-7.61.33-1.67.83-3.28,1.5-4.83.22-.78.56-1.5.94-2.22.83-1.89,1.83-3.72,2.94-5.5,1.22-1.78,2.56-3.44,4.06-5,1.78-2,3.78-3.83,6.06-5.33,3.89-2.83,8.33-4.94,13.17-6.11,3.22-.89,6.61-1.33,10.11-1.33,11.11,0,21.06,4.44,28.28,11.61.28.28.61.61.89,1h.06c.78.83,1.5,1.67,2.22,2.61,2.06,2.61,3.78,5.44,5.11,8.56.67,1.44,1.22,2.94,1.67,4.5.06.22.11.39.17.61.78,2.72,1.28,5.56,1.39,8.5.11.83.17,1.72.17,2.61Z"/>
    <path class="cls-5" d="m111.44,186.22c0,2.28-.28,4.44-.89,6.5-.56,2.22-1.39,4.33-2.44,6.33-.17.33-.56.94-.56.94h-49.33c-.06-.06-.11-.17-.11-.22-.67-1.06-1.22-2.11-1.67-3.28-1.11-2.56-1.78-5.33-2-8.22-.11-.67-.11-1.39-.11-2.06,0-.33,0-.72.06-1.06.06-2.44.39-4.78,1.06-6.94.56-2,1.28-3.83,2.22-5.61,0,0,.06-.06.06-.11.67-1.17,1.39-2.33,2.22-3.44,2.72-3.67,6.33-6.67,10.5-8.61h.06c1.33-.67,2.72-1.22,4.17-1.61h.06c2.56-.78,5.33-1.17,8.17-1.17,3.28,0,6.44.5,9.33,1.56,1.06.28,2.06.72,3.06,1.22h.06c4.78,2.28,8.83,5.83,11.61,10.28.56.83,1.06,1.72,1.5,2.67.22.39.44.83.61,1.22,1.28,2.89,2.06,6.06,2.28,9.39.06.28.06.56.06.89.06.44.06.89.06,1.33Z"/>
    <g>
      <path class="cls-1" d="m133.33,177.78h-66.67c-24.92,0-44.44-19.52-44.44-44.44v-66.67c0-24.92,19.52-44.44,44.44-44.44h66.67c24.92,0,44.44,19.52,44.44,44.44v66.67c0,24.92-19.52,44.44-44.44,44.44ZM66.67,33.33c-18.69,0-33.33,14.64-33.33,33.33v66.67c0,18.69,14.64,33.33,33.33,33.33h66.67c18.69,0,33.33-14.64,33.33-33.33v-66.67c0-18.69-14.64-33.33-33.33-33.33h-66.67Z"/>
      <circle class="cls-1" cx="138.89" cy="55.56" r="5.56"/>
    </g>
    <path class="cls-1" d="m100,138.89c-21.44,0-38.89-17.45-38.89-38.89s17.45-38.89,38.89-38.89,38.89,17.45,38.89,38.89-17.45,38.89-38.89,38.89Zm0-66.67c-15.32,0-27.78,12.46-27.78,27.78s12.46,27.78,27.78,27.78,27.78-12.46,27.78-27.78-12.46-27.78-27.78-27.78Z"/>
  </g>
</svg>