<?xml version="1.0" encoding="UTF-8"?>
<svg id="Soc-Med" xmlns="http://www.w3.org/2000/svg" viewBox="0 0 200 200">
  <defs>
    <style>
      .cls-1 {
        fill: #ffca28;
      }

      .cls-2 {
        fill: #263238;
      }
    </style>
  </defs>
  <g id="kakao">
    <path class="cls-2" d="m100,6.39C44.77,6.39,0,42.63,0,87.34,0,115.87,18.27,140.89,45.8,155.31l-10.57,35.22c-.64,2.14,1.74,3.9,3.6,2.67l40.1-26.74c6.8,1.18,13.83,1.83,21.06,1.83,55.23,0,100-36.24,100-80.95S155.23,6.39,100,6.39Z"/>
    <path class="cls-1" d="m57.14,73.06h-28.57c-2.63,0-4.76-2.13-4.76-4.76h0c0-2.63,2.13-4.76,4.76-4.76h28.57c2.63,0,4.76,2.13,4.76,4.76h0c0,2.63-2.13,4.76-4.76,4.76Z"/>
    <path class="cls-1" d="m104.76,111.15v-42.86c0-2.63,2.13-4.76,4.76-4.76h0c2.63,0,4.76,2.13,4.76,4.76v42.86c0,2.63-2.13,4.76-4.76,4.76h0c-2.63,0-4.76-2.13-4.76-4.76Z"/>
    <path class="cls-1" d="m138.1,111.15v-42.86c0-2.63,2.13-4.76,4.76-4.76h0c2.63,0,4.76,2.13,4.76,4.76v42.86c0,2.63-2.13,4.76-4.76,4.76h0c-2.63,0-4.76-2.13-4.76-4.76Z"/>
    <path class="cls-1" d="m141.05,88.33l23.4-23.4c1.86-1.86,4.88-1.86,6.73,0h0c1.86,1.86,1.86,4.88,0,6.73l-23.4,23.4c-1.86,1.86-4.88,1.86-6.73,0h0c-1.86-1.86-1.86-4.87,0-6.73Z"/>
    <path class="cls-1" d="m157.51,85.75l17.66,22.46c1.62,2.07,1.27,5.06-.8,6.69h0c-2.07,1.62-5.06,1.27-6.69-.8l-17.66-22.46c-1.62-2.07-1.27-5.06.8-6.69h0c2.07-1.62,5.06-1.27,6.69.8Z"/>
    <path class="cls-1" d="m128.57,115.91h-19.05c-2.63,0-4.76-2.13-4.76-4.76h0c0-2.63,2.13-4.76,4.76-4.76h19.05c2.63,0,4.76,2.13,4.76,4.76h0c0,2.63-2.13,4.76-4.76,4.76Z"/>
    <path class="cls-1" d="m99.68,109.45l-15.34-42.86c-.69-1.8-2.37-2.91-4.18-3-.53-.02-2.57-.01-3.05,0-1.87.03-3.6,1.15-4.31,3l-15.34,42.86c-.94,2.46.29,5.21,2.74,6.15s5.21-.29,6.15-2.74l2.31-6.47h19.81l2.31,6.47c.94,2.46,3.7,3.68,6.15,2.74s3.68-3.7,2.74-6.15Zm-27.6-12.58l6.5-18.15,6.5,18.15h-12.99Z"/>
    <path class="cls-1" d="m47.62,73.06h-9.52v38.1c0,2.63,2.13,4.76,4.76,4.76h0c2.63,0,4.76-2.13,4.76-4.76v-38.1Z"/>
  </g>
</svg>