<?xml version="1.0" encoding="UTF-8"?>
<svg id="Soc-Med" xmlns="http://www.w3.org/2000/svg" viewBox="0 0 200 200">
  <defs>
    <style>
      .cls-1 {
        fill: #fff;
      }

      .cls-2 {
        fill: #00c300;
      }
    </style>
  </defs>
  <g id="line">
    <path class="cls-2" d="m36.11,200h127.78c19.94,0,36.11-16.17,36.11-36.11V36.11c0-19.94-16.17-36.11-36.11-36.11H36.11C16.17,0,0,16.17,0,36.11v127.78c0,19.94,16.17,36.11,36.11,36.11Z"/>
    <path class="cls-1" d="m172.85,91.21c0-32.58-32.67-59.09-72.82-59.09S27.21,58.62,27.21,91.21c0,29.21,25.91,53.68,60.9,58.31,2.37.51,5.6,1.57,6.42,3.59.73,1.84.48,4.72.23,6.58,0,0-.85,5.14-1.04,6.23-.32,1.84-1.46,7.2,6.31,3.93,7.77-3.27,41.93-24.69,57.21-42.28h0c10.56-11.57,15.62-23.32,15.62-36.36Zm-101.32,19.39h-14.47c-2.11,0-3.82-1.71-3.82-3.82v-28.94c0-2.11,1.71-3.82,3.82-3.82s3.82,1.71,3.82,3.82v25.12h10.65c2.11,0,3.82,1.71,3.82,3.82s-1.71,3.83-3.82,3.83Zm14.96-3.82c0,2.11-1.71,3.82-3.82,3.82s-3.82-1.71-3.82-3.82v-28.94c0-2.11,1.71-3.82,3.82-3.82s3.82,1.71,3.82,3.82v28.94Zm34.83,0c0,1.65-1.04,3.11-2.61,3.62-.39.13-.81.2-1.21.2-1.19,0-2.33-.57-3.05-1.53l-14.83-20.19v17.9c0,2.11-1.71,3.82-3.82,3.82s-3.82-1.71-3.82-3.82v-28.94c0-1.64,1.05-3.1,2.61-3.62.39-.13.8-.19,1.21-.19,1.19,0,2.33.57,3.05,1.53l14.83,20.19v-17.91c0-2.11,1.72-3.82,3.82-3.82s3.82,1.71,3.82,3.82v28.94Zm23.41-18.29c2.11,0,3.82,1.71,3.82,3.82s-1.71,3.82-3.82,3.82h-10.65v6.83h10.65c2.11,0,3.82,1.71,3.82,3.82s-1.72,3.82-3.82,3.82h-14.47c-2.1,0-3.82-1.71-3.82-3.82v-14.46h0v-14.46h0c0-2.12,1.71-3.83,3.82-3.83h14.47c2.11,0,3.82,1.71,3.82,3.82s-1.71,3.82-3.82,3.82h-10.65v6.83h10.65Z"/>
  </g>
</svg>