<?xml version="1.0" encoding="UTF-8"?>
<svg id="Soc-Med" xmlns="http://www.w3.org/2000/svg" viewBox="0 0 200 200">
  <defs>
    <style>
      .cls-1 {
        fill: #fff;
      }

      .cls-2 {
        fill: #0288d1;
      }
    </style>
  </defs>
  <g id="linkedin">
    <path class="cls-2" d="m200,172.22c0,15.34-12.43,27.78-27.78,27.78H27.78c-15.34,0-27.78-12.43-27.78-27.78V27.78C0,12.43,12.44,0,27.78,0h144.44c15.34,0,27.78,12.43,27.78,27.78v144.44Z"/>
    <path class="cls-1" d="m33.33,72.22h27.78v94.44h-27.78v-94.44Zm13.81-11.11h-.16c-8.29,0-13.65-6.18-13.65-13.89s5.53-13.88,13.97-13.88,13.66,6,13.81,13.88c0,7.71-5.36,13.89-13.97,13.89Zm119.53,105.56h-27.78v-50.55c0-12.21-6.81-20.54-17.73-20.54-8.34,0-12.85,5.62-15.04,11.06-.8,1.94-.56,7.32-.56,10.04v50h-27.78v-94.44h27.78v14.53c4.01-6.2,10.28-14.53,26.32-14.53,19.88,0,34.78,12.5,34.78,40.41v54.03h0Z"/>
  </g>
</svg>