<?xml version="1.0" encoding="UTF-8"?>
<svg id="Soc-Med" xmlns="http://www.w3.org/2000/svg" viewBox="0 0 200 200">
  <defs>
    <style>
      .cls-1 {
        fill: #fff;
      }

      .cls-2 {
        fill: #e60023;
      }
    </style>
  </defs>
  <g id="pinterest">
    <circle class="cls-2" cx="100" cy="100" r="100"/>
    <path class="cls-1" d="m102.22,37.08c-43.16,0-66.08,28.97-66.08,60.52,0,14.67,7.81,32.93,20.3,38.74,1.89.88,2.91.5,3.34-1.33.33-1.39,2.02-8.18,2.78-11.34.24-1.01.12-1.87-.69-2.87-4.13-5.02-7.44-14.23-7.44-22.82,0-22.06,16.7-43.4,45.15-43.4,24.57,0,41.77,16.74,41.77,40.68,0,27.05-13.66,45.79-31.43,45.79-9.82,0-17.17-8.12-14.81-18.08,2.83-11.88,8.28-24.71,8.28-33.29,0-7.68-4.12-14.08-12.65-14.08-10.03,0-18.09,10.38-18.09,24.28,0,8.85,2.99,14.84,2.99,14.84,0,0-9.91,41.91-11.73,49.71-2.01,8.61-1.23,20.71-.36,28.62h0c2.26.88,4.51,1.77,6.84,2.49h0c4.08-6.64,10.17-17.53,12.43-26.21,1.22-4.68,6.23-23.77,6.23-23.77,3.26,6.22,12.78,11.48,22.92,11.48,30.16,0,51.89-27.73,51.89-62.2s-26.96-57.76-61.65-57.76Z"/>
  </g>
</svg>