<?xml version="1.0" encoding="UTF-8"?>
<svg id="Soc-Med" xmlns="http://www.w3.org/2000/svg" viewBox="0 0 200 200">
  <defs>
    <style>
      .cls-1 {
        fill: #fff;
      }

      .cls-2 {
        fill: #00abf3;
      }
    </style>
  </defs>
  <g id="skype">
    <path class="cls-2" d="m199.94,150c0,27.61-22.39,50-50.01,50H49.93C22.32,200-.06,177.61-.06,150V50C-.06,22.39,22.32,0,49.93,0h100c27.62,0,50.01,22.39,50.01,50v100Z"/>
    <path class="cls-1" d="m160.22,100.65c0-32.46-26.69-58.78-59.62-58.78-3.47,0-6.88.3-10.19.86-5.33-3.31-11.63-5.24-18.39-5.24-19.1,0-34.58,15.27-34.58,34.1,0,6.29,1.73,12.18,4.75,17.24-.79,3.82-1.2,7.77-1.2,11.82,0,32.47,26.69,58.79,59.62,58.79,3.73,0,7.38-.34,10.91-.98,4.88,2.58,10.44,4.04,16.35,4.04,19.1,0,34.58-15.26,34.58-34.09,0-5.44-1.3-10.57-3.59-15.14.9-4.07,1.37-8.28,1.37-12.62Zm-29.04,28.1c-2.76,3.85-6.83,6.9-12.12,9.06-5.23,2.14-11.49,3.23-18.62,3.23-8.57,0-15.75-1.49-21.35-4.42-4-2.13-7.31-5.02-9.82-8.59-2.53-3.59-3.81-7.17-3.81-10.62,0-2.15.84-4.02,2.49-5.55,1.63-1.52,3.72-2.28,6.22-2.28,2.05,0,3.81.6,5.25,1.79,1.37,1.15,2.55,2.85,3.49,5.04,1.06,2.39,2.21,4.4,3.42,5.98,1.17,1.53,2.86,2.81,5,3.81,2.16,1.01,5.08,1.53,8.66,1.53,4.93,0,8.97-1.04,12.01-3.09,2.97-1.99,4.41-4.39,4.41-7.33,0-2.32-.74-4.14-2.29-5.57-1.63-1.5-3.77-2.65-6.36-3.46-2.71-.83-6.39-1.73-10.94-2.67-6.19-1.3-11.45-2.86-15.62-4.6-4.28-1.8-7.73-4.28-10.24-7.39-2.56-3.17-3.86-7.12-3.86-11.78s1.36-8.45,4.05-11.89c2.66-3.43,6.56-6.1,11.57-7.92,4.95-1.8,10.84-2.72,17.5-2.72,5.32,0,10,.61,13.91,1.81,3.93,1.2,7.24,2.84,9.85,4.84,2.62,2.02,4.58,4.17,5.79,6.42,1.24,2.27,1.87,4.52,1.87,6.7s-.83,4.01-2.44,5.68c-1.63,1.67-3.7,2.52-6.12,2.52-2.21,0-3.94-.53-5.13-1.57-1.11-.98-2.28-2.5-3.56-4.68-1.49-2.78-3.29-4.98-5.35-6.53-2.01-1.51-5.36-2.26-9.96-2.26-4.27,0-7.75.85-10.33,2.51-2.48,1.61-3.7,3.45-3.7,5.63,0,1.34.39,2.46,1.2,3.42.84,1.03,2.04,1.91,3.55,2.67,1.57.77,3.19,1.39,4.79,1.83,1.66.46,4.44,1.13,8.25,1.99,4.82,1.03,9.26,2.16,13.17,3.41,3.98,1.26,7.4,2.79,10.2,4.59,2.86,1.83,5.12,4.18,6.73,6.99,1.61,2.82,2.43,6.31,2.43,10.36,0,4.84-1.41,9.26-4.18,13.11Z"/>
  </g>
</svg>