<?xml version="1.0" encoding="UTF-8"?>
<svg id="Soc-Med" xmlns="http://www.w3.org/2000/svg" viewBox="0 0 200 200">
  <defs>
    <style>
      .cls-1 {
        fill: #fff;
      }

      .cls-2 {
        fill: #2c2c2c;
      }
    </style>
  </defs>
  <g id="steam">
    <path class="cls-2" d="m199.94,150.3c0,27.62-22.39,50-50.01,50H49.93C22.32,200.3-.06,177.92-.06,150.3V50.3C-.06,22.69,22.32.3,49.93.3h100c27.62,0,50.01,22.39,50.01,50v100Z"/>
    <path id="Steam" class="cls-1" d="m153.08,84.09c0,6.48-5.18,11.74-11.57,11.74s-11.57-5.26-11.57-11.74,5.18-11.74,11.57-11.74,11.57,5.26,11.57,11.74Zm-4.66,19.84l-14.01,12.16c.15.97.25,1.96.25,2.97,0,10.35-8.27,18.75-18.47,18.75-8.8,0-16.14-6.25-18-14.6l-34.63-11.93c-2.74,2.11-6.14,3.38-9.84,3.38-9,0-16.3-7.41-16.3-16.54s7.3-16.54,16.3-16.54c7.74,0,14.2,5.48,15.87,12.81l33.45,11.52c3.26-3.35,7.75-5.45,12.73-5.57l5.01-15.46c-.01-.31-.04-.61-.04-.92,0-11.68,9.33-21.15,20.84-21.15s20.84,9.47,20.84,21.15c0,9.26-5.86,17.1-14.01,19.97h0Zm-84.44-11.48c-1.95-3.56-5.68-5.97-9.98-5.97-6.3,0-11.41,5.19-11.41,11.58s5.11,11.58,11.41,11.58c1.17,0,2.29-.18,3.35-.51l-5.42-1.87c-4.37-2.37-6.01-7.89-3.67-12.33,2.34-4.43,7.78-6.1,12.15-3.72l3.58,1.23Zm61.36-8.44c0,9.07,7.25,16.43,16.19,16.43s16.19-7.36,16.19-16.43-7.25-16.43-16.19-16.43-16.19,7.36-16.19,16.43Zm.32,36.66c0-6.91-5.52-12.51-12.32-12.51-.95,0-1.88.12-2.77.33l6.89,2.37c4.37,2.38,6.01,7.9,3.67,12.33-2.34,4.44-7.78,6.1-12.14,3.73l-7.42-2.56c1.55,5.11,6.24,8.82,11.78,8.82,6.81,0,12.32-5.6,12.32-12.51h0Z"/>
  </g>
</svg>