<?xml version="1.0" encoding="UTF-8"?>
<svg id="Soc-Med" xmlns="http://www.w3.org/2000/svg" viewBox="0 0 200 200">
  <defs>
    <style>
      .cls-1 {
        fill: #fff;
      }

      .cls-1, .cls-2, .cls-3, .cls-4 {
        fill-rule: evenodd;
      }

      .cls-2 {
        fill: #212121;
      }

      .cls-3 {
        fill: #ec407a;
      }

      .cls-4 {
        fill: #81d4fa;
      }
    </style>
  </defs>
  <g id="tiktok">
    <path class="cls-2" d="m27.24,0h145.51c15.05,0,27.25,12.2,27.25,27.24v145.51c0,15.05-12.2,27.25-27.24,27.25H27.24c-15.04,0-27.24-12.2-27.24-27.24V27.24C0,12.2,12.2,0,27.24,0Z"/>
    <path class="cls-3" d="m128.93,81.15c8.76,6.26,19.48,9.93,31.07,9.93v-22.28c-2.19,0-4.38-.23-6.52-.68v17.54c-11.58,0-22.31-3.68-31.07-9.93v45.47c0,22.74-18.45,41.18-41.21,41.18-8.49,0-16.38-2.57-22.94-6.97,7.48,7.64,17.92,12.39,29.46,12.39,22.76,0,41.21-18.44,41.21-41.18v-45.46h0Zm8.05-22.48c-4.47-4.88-7.41-11.2-8.05-18.18v-2.87h-6.18c1.56,8.87,6.87,16.46,14.23,21.05h0Zm-64.32,79.28c-2.5-3.28-3.85-7.28-3.84-11.41,0-10.41,8.44-18.84,18.85-18.84,1.94,0,3.87.29,5.72.88v-22.78c-2.16-.29-4.34-.42-6.52-.38v17.73c-1.85-.59-3.78-.88-5.72-.88-10.41,0-18.85,8.43-18.85,18.84,0,7.36,4.22,13.73,10.37,16.83Z"/>
    <path class="cls-1" d="m122.41,75.72c8.76,6.26,19.48,9.93,31.07,9.93v-17.54c-6.47-1.38-12.19-4.76-16.49-9.45-7.37-4.59-12.67-12.17-14.23-21.04h-16.24v88.99c-.04,10.37-8.46,18.77-18.85,18.77-6.12,0-11.56-2.92-15.01-7.43-6.15-3.1-10.37-9.47-10.37-16.83,0-10.41,8.44-18.84,18.85-18.84,1.99,0,3.92.31,5.72.88v-17.72c-22.36.46-40.33,18.72-40.33,41.17,0,11.21,4.48,21.37,11.74,28.79,6.56,4.4,14.45,6.97,22.94,6.97,22.76,0,41.21-18.44,41.21-41.18v-45.47h-.01Z"/>
    <path class="cls-4" d="m153.48,68.12v-4.74c-5.83.01-11.54-1.62-16.49-4.71,4.38,4.79,10.14,8.1,16.49,9.46Zm-30.73-30.5c-.15-.85-.26-1.7-.34-2.56v-2.87h-22.42v88.99c-.03,10.37-8.46,18.77-18.85,18.77-3.05,0-5.93-.72-8.48-2.01,3.44,4.52,8.88,7.43,15.01,7.43,10.39,0,18.81-8.4,18.85-18.77V37.62h16.23Zm-35.89,47.82v-5.05c-1.87-.26-3.76-.38-5.66-.38-22.76,0-41.21,18.44-41.21,41.18,0,14.26,7.25,26.83,18.27,34.22-7.27-7.42-11.74-17.58-11.74-28.79,0-22.46,17.98-40.71,40.34-41.17Z"/>
  </g>
</svg>