<?xml version="1.0" encoding="UTF-8"?>
<svg id="Soc-Med" xmlns="http://www.w3.org/2000/svg" viewBox="0 0 200 200">
  <defs>
    <style>
      .cls-1 {
        fill: #fff;
      }

      .cls-2 {
        fill: #2da141;
      }
    </style>
  </defs>
  <g id="trip-advisor">
    <path class="cls-2" d="m199.94,149.99c0,27.62-22.39,50.01-50.01,50.01H49.93C22.32,200-.06,177.61-.06,149.99V50C-.06,22.38,22.32,0,49.93,0h100c27.62,0,50.01,22.38,50.01,50v99.99Z"/>
    <path id="Bird" class="cls-1" d="m99.94,62.5c-16.67,0-29.17,4.17-41.67,16.67h-20.83s0,6.25,8.34,8.34c-3.73,5.13-8.34,14-8.34,20.83,0,17.19,11.98,29.17,29.17,29.17,9.75,0,19.29-5.48,25-12.5l8.34,12.5,8.34-12.5c5.7,7.02,15.25,12.5,25,12.5,17.18,0,29.17-11.98,29.17-29.17,0-6.83-4.6-15.7-8.34-20.83,8.33-2.08,8.34-8.34,8.34-8.34h-20.83c-12.5-12.5-25-16.67-41.67-16.67Zm0,4.17c20.83,0,33.33,12.51,33.33,12.51-16.67,0-33.33,20.84-33.33,41.67,0-20.83-16.67-41.67-33.33-41.67,0,0,12.5-12.51,33.33-12.51h0Zm-33.33,20.84c11.5,0,20.83,9.32,20.83,20.83s-9.32,20.83-20.83,20.83-20.83-9.32-20.83-20.83,9.32-20.83,20.83-20.83Zm66.67,0c11.51,0,20.83,9.32,20.83,20.83s-9.32,20.83-20.83,20.83-20.83-9.32-20.83-20.83,9.32-20.83,20.83-20.83Zm-66.67,8.32c-6.9,0-12.51,5.6-12.51,12.51s5.6,12.51,12.51,12.51,12.51-5.6,12.51-12.51-5.6-12.51-12.51-12.51Zm66.67,0c-6.9,0-12.5,5.61-12.5,12.51s5.6,12.51,12.5,12.51,12.51-5.6,12.51-12.51-5.6-12.51-12.51-12.51h0Zm-66.67,4.17c4.6,0,8.34,3.74,8.34,8.34s-3.74,8.34-8.34,8.34-8.34-3.73-8.34-8.34,3.74-8.34,8.34-8.34Zm66.67,0c4.6,0,8.34,3.74,8.34,8.34s-3.74,8.34-8.34,8.34-8.34-3.73-8.34-8.34,3.74-8.34,8.34-8.34Zm-66.67,4.17c-2.3,0-4.17,1.87-4.17,4.17s1.87,4.17,4.17,4.17,4.17-1.87,4.17-4.17-1.87-4.17-4.17-4.17Zm66.67,0c-2.3,0-4.17,1.87-4.17,4.17s1.87,4.17,4.17,4.17,4.17-1.87,4.17-4.17-1.87-4.17-4.17-4.17Z"/>
  </g>
</svg>