<?xml version="1.0" encoding="UTF-8"?>
<svg id="Soc-Med" xmlns="http://www.w3.org/2000/svg" viewBox="0 0 200 200">
  <defs>
    <style>
      .cls-1 {
        fill: #fff;
      }

      .cls-2 {
        fill: #03a9f4;
      }
    </style>
  </defs>
  <g id="twitter">
    <rect class="cls-2" y="0" width="200" height="200" rx="8" ry="8"/>
    <path class="cls-1" d="m100.06,88.87c-21.76.78-41.82-13.84-58.14-33.59-4.93,13.59-1.66,26.12,13.53,38.88-5.75.93-11.33-1.01-16.79-4.82-.1,10,3.89,18.03,21.93,25.5-4.54,2.59-8.55,3.11-16.02,2.18,3.99,9.86,13.97,16.1,32.81,16.95-10.11,8.15-25.82,10.68-43.7,11.04,65.16,31.26,127.67-8.09,121.61-70.6,4.05-1.25,7.65-5.74,11.04-11.82-5.23,2.26-10.51,3.48-15.86,2.95,6.36-3.44,11.76-7.79,15.86-13.37-7.65,2.53-14.86,4.68-20.06,5.13-18.66-16.02-48.44-7.87-46.2,31.57Z"/>
  </g>
</svg>