<?xml version="1.0" encoding="UTF-8"?>
<svg id="Soc-Med" xmlns="http://www.w3.org/2000/svg" viewBox="0 0 200 200">
  <defs>
    <style>
      .cls-1 {
        fill: #cfd8dc;
      }

      .cls-1, .cls-2, .cls-3 {
        fill-rule: evenodd;
      }

      .cls-2 {
        fill: #fff;
      }

      .cls-3 {
        fill: #40c351;
      }
    </style>
  </defs>
  <g id="whatsapp">
    <path class="cls-2" d="m4.99,195.44l13.43-49.01c-8.28-14.34-12.64-30.62-12.63-47.29.02-52.15,42.46-94.58,94.62-94.58,25.31,0,49.06,9.86,66.93,27.74,17.86,17.88,27.7,41.64,27.69,66.92-.02,52.15-42.47,94.58-94.61,94.58,0,0,0,0,0,0h-.04c-15.83,0-31.4-3.98-45.21-11.52l-50.16,13.16Z"/>
    <path class="cls-2" d="m4.99,197.93c-.66,0-1.3-.26-1.77-.74-.62-.63-.87-1.55-.63-2.41l13.15-48.02c-8.15-14.48-12.45-30.93-12.44-47.62C3.31,45.61,46.87,2.07,100.4,2.07c25.96,0,50.36,10.12,68.69,28.47,18.33,18.35,28.43,42.74,28.42,68.68-.02,53.53-43.58,97.08-97.11,97.08-15.89,0-31.61-3.93-45.57-11.35l-49.21,12.9c-.21.06-.42.08-.63.08Z"/>
    <path class="cls-1" d="m100.4,4.56c25.31,0,49.06,9.86,66.93,27.74,17.86,17.88,27.7,41.64,27.69,66.92-.02,52.15-42.47,94.58-94.61,94.58h-.04c-15.83,0-31.4-3.98-45.21-11.52l-50.16,13.16,13.43-49.01c-8.28-14.34-12.64-30.62-12.63-47.29.02-52.15,42.46-94.58,94.62-94.58m0,189.24h0m0,0h0M100.4-.43h0C45.5-.43.82,44.24.79,99.14c0,16.78,4.23,33.31,12.26,47.95L.18,194.13c-.47,1.72,0,3.55,1.27,4.82.95.96,2.23,1.48,3.54,1.48.42,0,.85-.05,1.27-.16l48.27-12.66c14.09,7.32,29.89,11.18,45.83,11.18,54.94,0,99.62-44.67,99.64-99.57,0-26.61-10.34-51.62-29.14-70.44C152.04,9.96,127.02-.42,100.4-.43h0Z"/>
    <path class="cls-3" d="m156.02,43.59c-14.85-14.86-34.59-23.05-55.6-23.05-43.38,0-78.65,35.26-78.67,78.61,0,14.86,4.15,29.32,12.02,41.84l1.87,2.98-7.95,29.01,29.77-7.8,2.88,1.7c12.07,7.17,25.91,10.95,40.03,10.96h.03c43.35,0,78.62-35.27,78.64-78.62,0-21-8.16-40.76-23.01-55.62Z"/>
    <path class="cls-2" d="m76.75,59.6c-1.77-3.94-3.63-4.02-5.32-4.09-1.38-.06-2.96-.05-4.53-.05s-4.14.59-6.3,2.96c-2.17,2.37-8.28,8.08-8.28,19.71s8.47,22.87,9.65,24.45,16.36,26.21,40.39,35.69c19.97,7.87,24.03,6.31,28.37,5.92,4.34-.39,13.99-5.72,15.96-11.24,1.97-5.52,1.97-10.25,1.38-11.24-.59-.99-2.17-1.57-4.53-2.76s-13.99-6.9-16.16-7.69c-2.17-.79-3.74-1.18-5.32,1.19-1.57,2.36-6.1,7.69-7.49,9.26-1.38,1.58-2.76,1.78-5.12.59-2.36-1.19-9.98-3.68-19.01-11.73-7.03-6.26-11.77-14-13.15-16.37-1.38-2.36-.15-3.64,1.04-4.82,1.06-1.06,2.36-2.76,3.55-4.14,1.18-1.38,1.57-2.37,2.36-3.94.79-1.58.39-2.96-.2-4.14-.58-1.19-5.18-12.88-7.28-17.55Z"/>
  </g>
</svg>