<?xml version="1.0" encoding="UTF-8"?>
<svg id="Soc-Med" xmlns="http://www.w3.org/2000/svg" viewBox="0 0 200 200">
  <defs>
    <style>
      .cls-1 {
        fill: #fff;
      }

      .cls-2 {
        fill: #5cbf00;
      }
    </style>
  </defs>
  <g id="xbox">
    <rect class="cls-2" x="-.06" width="200" height="200" rx="50" ry="50"/>
    <path id="path3797" class="cls-1" d="m101.2,37.51c-6.94-.11-13.97.9-20.47,3.03-5.68,1.86-10.61,3.88-10.97,4.48-.36.6,3.44,2.21,8.46,3.59,5.02,1.39,11.74,4.13,14.94,6.06,7.3,4.41,7.02,4.4,12.75.79,6.53-4.11,22.81-9.18,26.55-8.26,1.68.42-1.12-1.31-6.22-3.87-7.37-3.7-16.12-5.69-25.04-5.83Zm39.39,14.32l-5.35,2.94c-2.96,1.62-8.69,6.04-12.71,9.79l-7.27,6.81,8.14,10.35c16.84,21.37,26.11,39.69,26.28,51.82l.09,5.78,4.25-6.48c6.56-10,8.9-20.23,8.32-36.1-.43-11.83-1.14-15.09-5.16-23.41-2.57-5.31-7.33-12.32-10.6-15.58l-5.99-5.92Zm-79.89.93c-1.14-.04-2.14.48-3.79,1.59-4.59,3.07-13.02,16.14-16.59,25.75-5.77,15.5-2.64,39.37,7.04,53.87,3.81,5.72,4.66,6.31,3.43,2.33-2.45-7.88,10.2-33.83,26.64-54.62l8.23-10.31-7.68-7c-4.2-3.84-9.86-8.21-12.57-9.7-2.28-1.25-3.56-1.87-4.71-1.91Zm39.21,32.51l-10.33,9.14c-18.41,16.21-35.24,38.15-35.24,45.99,0,5.85,16.56,16.7,31.4,20.57,15.81,4.12,38-.3,51.55-10.26,11.24-8.26,11.58-11.15,3.11-24.21-5.22-8.05-28.53-32.73-35.83-37.92l-4.66-3.31Z"/>
  </g>
</svg>