<?xml version="1.0" encoding="UTF-8"?>
<svg id="Soc-Med" xmlns="http://www.w3.org/2000/svg" viewBox="0 0 200 200">
  <defs>
    <style>
      .cls-1 {
        fill: #fff;
      }

      .cls-2 {
        fill: #91009a;
      }
    </style>
  </defs>
  <g id="yahoo">
    <path class="cls-2" d="m199.94,150c0,27.61-22.39,50-50.01,50H49.93C22.32,200-.06,177.61-.06,150V50C-.06,22.38,22.32,0,49.93,0h100c27.62,0,50.01,22.38,50.01,50v100Z"/>
    <g>
      <path class="cls-1" d="m85.91,109.05c.41,2.87.78,19.81-.42,21.1-2.41,2.56-13.4,1.88-16.06,2.07l-.91,5.25c4.84.15,20.61-.39,25.5-.39,9.66,0,26.58-.05,28.97.13l.29-5.51c-2.44-.41-15.76-.05-17.6-.47-.41-2.67-.85-20.5-.45-22.35,1.84-5.33,29.83-27.02,32.89-27.85.69-.13,1.72-.37,2.88-.62h9.02l1.41-2.08s.08-.02.11-.02l3.49-5.06s-.13-.01-.17-.01l.37-.55h-48.86l1.88,7.71h13.34l-22.44,20.33c-4.58-6.35-15.32-19.57-22.8-30.51h16.8v-5.87l.2-1.3s-.15-.02-.2-.02v-.53h-55.71v7.72h16.52c6.41,5.03,30.93,35.77,31.95,38.83Z"/>
      <path class="cls-1" d="m146.03,88.34l.2,34.85,7.49.6,8.72-33.81c-1.46-.05-14.69-1.31-16.41-1.64Z"/>
      <polygon class="cls-1" points="152.87 137.5 154.06 129.42 149.75 129.2 144.94 128.61 144.98 136.86 148.77 137.19 152.87 137.5"/>
    </g>
  </g>
</svg>