<?xml version="1.0" encoding="UTF-8"?>
<svg id="Soc-Med" xmlns="http://www.w3.org/2000/svg" viewBox="0 0 200 200">
  <defs>
    <style>
      .cls-1 {
        fill: #fff;
      }

      .cls-2 {
        fill: #ff3d00;
      }
    </style>
  </defs>
  <g id="youtube">
    <path class="cls-2" d="m195.51,149.38c-2,10.47-10.47,18.45-20.95,19.95-16.46,2.49-43.89,5.49-74.81,5.49s-57.86-2.99-74.81-5.49c-10.47-1.5-18.95-9.48-20.95-19.95-2-11.47-3.99-28.43-3.99-49.38s2-37.91,3.99-49.38c2-10.47,10.47-18.45,20.95-19.95,16.46-2.49,43.89-5.49,74.81-5.49s57.86,2.99,74.81,5.49c10.47,1.5,18.95,9.48,20.95,19.95,2,11.47,4.49,28.43,4.49,49.38-.5,20.95-2.49,37.91-4.49,49.38Z"/>
    <path class="cls-1" d="m79.8,134.91v-69.83l59.85,34.91-59.85,34.91Z"/>
  </g>
</svg>